<svg width="14" height="12" viewBox="0 0 14 12" fill="none" xmlns="http://www.w3.org/2000/svg">
<path d="M12.1964 3.07357C11.6607 2.43343 10.9331 1.92774 10.0134 1.55663C9.09383 1.18553 8.08932 1 7.00001 1C5.91073 1 4.90624 1.18553 3.9866 1.55663C3.06697 1.92774 2.33931 2.43334 1.80358 3.07357C1.26783 3.71375 1 4.41143 1 5.16666C1 5.81767 1.20194 6.42767 1.606 6.99623C2.01005 7.56481 2.56243 8.04232 3.2634 8.42859C3.21424 8.60214 3.15621 8.76704 3.08923 8.92342C3.02226 9.07965 2.96201 9.20771 2.90844 9.30759C2.85482 9.40733 2.78234 9.51807 2.69075 9.6395C2.5993 9.76108 2.53011 9.84685 2.48323 9.89679C2.43639 9.94673 2.35939 10.0291 2.25217 10.1442C2.1451 10.2591 2.07587 10.3341 2.04465 10.3688C2.04012 10.3711 2.0223 10.3905 1.99105 10.4275C1.95984 10.4644 1.94417 10.4827 1.94417 10.4827L1.90399 10.5413C1.88164 10.5737 1.8716 10.5944 1.8738 10.6029C1.87606 10.6117 1.8716 10.6334 1.86043 10.668C1.84925 10.7028 1.8504 10.7289 1.86377 10.7462V10.7528C1.88164 10.8265 1.91731 10.8862 1.97088 10.9318C2.02445 10.9772 2.08483 11 2.15172 11H2.18524C2.47549 10.9652 2.72992 10.9176 2.94864 10.8568C4.11832 10.566 5.14515 10.0409 6.02904 9.28123C6.36383 9.31596 6.6875 9.33329 6.99997 9.33329C8.08925 9.33329 9.09379 9.14779 10.0134 8.77657C10.933 8.40542 11.6607 7.89991 12.1964 7.25975C12.7321 6.61961 13 5.92186 13 5.16663C13 4.41152 12.7322 3.71375 12.1964 3.07357ZM11.4431 6.82689C10.9764 7.33897 10.3469 7.74594 9.55455 8.04754C8.76216 8.34907 7.91055 8.50001 6.99985 8.50001C6.72756 8.50001 6.4374 8.48268 6.12937 8.44788L5.74767 8.40893L5.45972 8.65639C4.91069 9.12519 4.29679 9.49622 3.61822 9.76968C3.82354 9.41819 3.9798 9.04487 4.08699 8.64998L4.26778 8.02489L3.68521 7.69949C3.10485 7.37812 2.65513 6.9973 2.33586 6.55671C2.01664 6.11626 1.8571 5.65283 1.8571 5.16675C1.8571 4.5721 2.09036 4.01875 2.55685 3.50658C3.02348 2.99446 3.65286 2.58753 4.4453 2.28589C5.23774 1.98422 6.08922 1.83326 6.99999 1.83326C7.91069 1.83326 8.76214 1.98415 9.55453 2.2858C10.3469 2.58747 10.9764 2.99437 11.443 3.50649C11.9095 4.01866 12.1428 4.57203 12.1428 5.16663C12.1428 5.76124 11.9095 6.31472 11.4431 6.82689Z" fill="black" stroke="black" stroke-width="0.4"/>
</svg>
