<svg width="221" height="21" viewBox="0 0 221 21" fill="none" xmlns="http://www.w3.org/2000/svg">
<path d="M9.52447 1.46353C9.67415 1.00287 10.3259 1.00287 10.4755 1.46353L12.1329 6.56434C12.1998 6.77035 12.3918 6.90983 12.6084 6.90983H17.9717C18.4561 6.90983 18.6575 7.52964 18.2656 7.81434L13.9266 10.9668C13.7514 11.0941 13.678 11.3198 13.745 11.5258L15.4023 16.6266C15.552 17.0873 15.0248 17.4704 14.6329 17.1857L10.2939 14.0332C10.1186 13.9059 9.88135 13.9059 9.70611 14.0332L5.3671 17.1857C4.97524 17.4704 4.448 17.0873 4.59768 16.6266L6.25503 11.5258C6.32197 11.3198 6.24864 11.0941 6.07339 10.9668L1.73438 7.81434C1.34253 7.52964 1.54392 6.90983 2.02828 6.90983H7.39159C7.6082 6.90983 7.80018 6.77035 7.86712 6.56434L9.52447 1.46353Z" fill="#FF4175"/>
<path d="M32.5245 1.46353C32.6741 1.00287 33.3259 1.00287 33.4755 1.46353L35.1329 6.56434C35.1998 6.77035 35.3918 6.90983 35.6084 6.90983H40.9717C41.4561 6.90983 41.6575 7.52964 41.2656 7.81434L36.9266 10.9668C36.7514 11.0941 36.678 11.3198 36.745 11.5258L38.4023 16.6266C38.552 17.0873 38.0248 17.4704 37.6329 17.1857L33.2939 14.0332C33.1186 13.9059 32.8814 13.9059 32.7061 14.0332L28.3671 17.1857C27.9752 17.4704 27.448 17.0873 27.5977 16.6266L29.255 11.5258C29.322 11.3198 29.2486 11.0941 29.0734 10.9668L24.7344 7.81434C24.3425 7.52964 24.5439 6.90983 25.0283 6.90983H30.3916C30.6082 6.90983 30.8002 6.77035 30.8671 6.56434L32.5245 1.46353Z" fill="#FF4175"/>
<path d="M55.0268 1.38706C55.1808 0.935657 55.8192 0.935656 55.9732 1.38706L57.7419 6.57128C57.811 6.77374 58.0012 6.90983 58.2151 6.90983H63.8848C64.375 6.90983 64.5724 7.54204 64.1693 7.821L59.6251 10.9653C59.4412 11.0926 59.3642 11.3264 59.4364 11.538L61.1819 16.6543C61.3376 17.1107 60.8207 17.5013 60.4242 17.2269L55.7845 14.0165C55.6133 13.8981 55.3867 13.8981 55.2155 14.0165L50.5759 17.2269C50.1793 17.5013 49.6624 17.1107 49.8181 16.6543L51.5636 11.538C51.6358 11.3264 51.5588 11.0926 51.3749 10.9653L46.8307 7.821C46.4276 7.54204 46.625 6.90983 47.1152 6.90983H52.7849C52.9988 6.90983 53.189 6.77374 53.2581 6.57128L55.0268 1.38706Z" fill="#FF4175"/>
<path d="M77.5245 1.46353C77.6741 1.00287 78.3259 1.00287 78.4755 1.46353L80.1329 6.56434C80.1998 6.77035 80.3918 6.90983 80.6084 6.90983H85.9717C86.4561 6.90983 86.6575 7.52964 86.2656 7.81434L81.9266 10.9668C81.7514 11.0941 81.678 11.3198 81.745 11.5258L83.4023 16.6266C83.552 17.0873 83.0248 17.4704 82.6329 17.1857L78.2939 14.0332C78.1186 13.9059 77.8814 13.9059 77.7061 14.0332L73.3671 17.1857C72.9752 17.4704 72.448 17.0873 72.5977 16.6266L74.255 11.5258C74.322 11.3198 74.2486 11.0941 74.0734 10.9668L69.7344 7.81434C69.3425 7.52964 69.5439 6.90983 70.0283 6.90983H75.3916C75.6082 6.90983 75.8002 6.77035 75.8671 6.56434L77.5245 1.46353Z" fill="#FF4175"/>
<path d="M100.524 1.46353C100.674 1.00287 101.326 1.00287 101.476 1.46353L103.133 6.56434C103.2 6.77035 103.392 6.90983 103.608 6.90983H108.972C109.456 6.90983 109.657 7.52964 109.266 7.81434L104.927 10.9668C104.751 11.0941 104.678 11.3198 104.745 11.5258L106.402 16.6266C106.552 17.0873 106.025 17.4704 105.633 17.1857L101.294 14.0332C101.119 13.9059 100.881 13.9059 100.706 14.0332L96.3671 17.1857C95.9752 17.4704 95.448 17.0873 95.5977 16.6266L97.255 11.5258C97.322 11.3198 97.2486 11.0941 97.0734 10.9668L92.7344 7.81434C92.3425 7.52964 92.5439 6.90983 93.0283 6.90983H98.3916C98.6082 6.90983 98.8002 6.77035 98.8671 6.56434L100.524 1.46353Z" fill="#C4C4C4"/>
<path d="M134.46 3.4L127.44 12.04V14.52H134.58V17H137.44V14.52H139.5V12.02H137.44V3.4H134.46ZM134.58 12.02H130.56L134.58 7.06V12.02Z" fill="#FF4175"/>
<path d="M144.497 17.812L148.669 6.388H147.829L143.657 17.812H144.497ZM153.567 8.236V9.412C154.547 8.726 155.555 8.404 156.521 8.404C157.893 8.404 158.691 8.908 158.691 9.846C158.691 11.078 157.613 11.666 156.423 12.366C154.939 13.234 153.231 14.116 153.231 16.44V17H159.937V15.88L154.519 15.894C154.547 14.634 155.849 13.99 157.179 13.206C158.509 12.422 159.867 11.484 159.867 9.86C159.867 8.236 158.565 7.312 156.619 7.312C155.569 7.312 154.519 7.578 153.567 8.236ZM161.97 7.48L161.662 12.59C162.39 12.324 163.286 12.142 164.126 12.142C165.61 12.142 166.954 12.576 166.954 14.13C166.954 15.418 165.862 16.076 164.308 16.076C163.286 16.076 162.208 15.838 161.396 15.404V16.524C162.222 16.93 163.342 17.168 164.448 17.168C166.52 17.168 168.144 16.062 168.144 14.13C168.144 11.848 166.324 11.078 164.532 11.078C163.972 11.078 163.412 11.148 162.908 11.288L163.076 8.6H167.682V7.48H161.97ZM172.822 13.64C172.822 15.936 174.586 17.168 176.406 17.168C178.24 17.168 179.99 15.936 179.99 13.64C179.99 11.344 178.24 10.112 176.406 10.112C174.586 10.112 172.822 11.344 172.822 13.64ZM178.87 13.64C178.87 15.194 177.778 16.104 176.406 16.104C175.034 16.104 173.942 15.194 173.942 13.64C173.942 12.086 175.034 11.176 176.406 11.176C177.778 11.176 178.87 12.086 178.87 13.64ZM188.513 18.82V15.964H187.519V10.28H186.399V15.964H182.717V10.28H181.597V17H187.421V18.82H188.513ZM189.406 13.64C189.406 16.034 191.142 17.168 193.13 17.168C194.012 17.168 194.894 17 195.51 16.678V15.586C194.936 15.908 194.124 16.132 193.298 16.132C191.94 16.132 190.666 15.544 190.526 14.13H195.874C196.294 12.226 195.342 10.112 192.752 10.112C191.156 10.112 189.406 11.288 189.406 13.64ZM194.88 13.15H190.526C190.61 11.834 191.674 11.148 192.822 11.148C194.53 11.148 194.978 12.436 194.88 13.15ZM198.631 17V14.158H202.523V17H203.643V10.28H202.523V13.122H198.631V10.28H197.511V17H198.631ZM205.252 13.64C205.252 15.936 207.016 17.168 208.836 17.168C210.67 17.168 212.42 15.936 212.42 13.64C212.42 11.344 210.67 10.112 208.836 10.112C207.016 10.112 205.252 11.344 205.252 13.64ZM211.3 13.64C211.3 15.194 210.208 16.104 208.836 16.104C207.464 16.104 206.372 15.194 206.372 13.64C206.372 12.086 207.464 11.176 208.836 11.176C210.208 11.176 211.3 12.086 211.3 13.64ZM215.146 17V14.116H216.462L218.926 17H220.242L217.386 13.626L219.934 10.28H218.632L216.504 13.08H215.146V10.28H214.026V17H215.146Z" fill="#828282"/>
</svg>
