<svg width="86" height="13" viewBox="0 0 86 13" fill="none" xmlns="http://www.w3.org/2000/svg">
<path d="M6.52447 0.463524C6.67415 0.00286841 7.32585 0.00286996 7.47553 0.463525L8.68386 4.18237C8.75079 4.38838 8.94277 4.52786 9.15938 4.52786H13.0696C13.554 4.52786 13.7554 5.14767 13.3635 5.43237L10.2001 7.73075C10.0248 7.85807 9.95149 8.08375 10.0184 8.28976L11.2268 12.0086C11.3764 12.4693 10.8492 12.8523 10.4573 12.5676L7.29389 10.2693C7.11865 10.1419 6.88135 10.1419 6.70611 10.2693L3.54267 12.5676C3.15081 12.8523 2.62357 12.4693 2.77325 12.0086L3.98157 8.28976C4.04851 8.08375 3.97518 7.85807 3.79994 7.73075L0.636495 5.43237C0.244639 5.14767 0.446028 4.52786 0.93039 4.52786H4.84062C5.05723 4.52786 5.24921 4.38838 5.31614 4.18237L6.52447 0.463524Z" fill="#FF4175"/>
<path d="M24.5245 0.463524C24.6741 0.00286841 25.3259 0.00286996 25.4755 0.463525L26.6839 4.18237C26.7508 4.38838 26.9428 4.52786 27.1594 4.52786H31.0696C31.554 4.52786 31.7554 5.14767 31.3635 5.43237L28.2001 7.73075C28.0248 7.85807 27.9515 8.08375 28.0184 8.28976L29.2268 12.0086C29.3764 12.4693 28.8492 12.8523 28.4573 12.5676L25.2939 10.2693C25.1186 10.1419 24.8814 10.1419 24.7061 10.2693L21.5427 12.5676C21.1508 12.8523 20.6236 12.4693 20.7732 12.0086L21.9816 8.28976C22.0485 8.08375 21.9752 7.85807 21.7999 7.73075L18.6365 5.43237C18.2446 5.14767 18.446 4.52786 18.9304 4.52786H22.8406C23.0572 4.52786 23.2492 4.38838 23.3161 4.18237L24.5245 0.463524Z" fill="#FF4175"/>
<path d="M42.5245 0.463524C42.6741 0.00286841 43.3259 0.00286996 43.4755 0.463525L44.6839 4.18237C44.7508 4.38838 44.9428 4.52786 45.1594 4.52786H49.0696C49.554 4.52786 49.7554 5.14767 49.3635 5.43237L46.2001 7.73075C46.0248 7.85807 45.9515 8.08375 46.0184 8.28976L47.2268 12.0086C47.3764 12.4693 46.8492 12.8523 46.4573 12.5676L43.2939 10.2693C43.1186 10.1419 42.8814 10.1419 42.7061 10.2693L39.5427 12.5676C39.1508 12.8523 38.6236 12.4693 38.7732 12.0086L39.9816 8.28976C40.0485 8.08375 39.9752 7.85807 39.7999 7.73075L36.6365 5.43237C36.2446 5.14767 36.446 4.52786 36.9304 4.52786H40.8406C41.0572 4.52786 41.2492 4.38838 41.3161 4.18237L42.5245 0.463524Z" fill="#FF4175"/>
<path d="M60.5245 0.463524C60.6741 0.00286841 61.3259 0.00286996 61.4755 0.463525L62.6839 4.18237C62.7508 4.38838 62.9428 4.52786 63.1594 4.52786H67.0696C67.554 4.52786 67.7554 5.14767 67.3635 5.43237L64.2001 7.73075C64.0248 7.85807 63.9515 8.08375 64.0184 8.28976L65.2268 12.0086C65.3764 12.4693 64.8492 12.8523 64.4573 12.5676L61.2939 10.2693C61.1186 10.1419 60.8814 10.1419 60.7061 10.2693L57.5427 12.5676C57.1508 12.8523 56.6236 12.4693 56.7732 12.0086L57.9816 8.28976C58.0485 8.08375 57.9752 7.85807 57.7999 7.73075L54.6365 5.43237C54.2446 5.14767 54.446 4.52786 54.9304 4.52786H58.8406C59.0572 4.52786 59.2492 4.38838 59.3161 4.18237L60.5245 0.463524Z" fill="#FF4175"/>
<path d="M78.5245 0.463524C78.6741 0.00286841 79.3259 0.00286996 79.4755 0.463525L80.6839 4.18237C80.7508 4.38838 80.9428 4.52786 81.1594 4.52786H85.0696C85.554 4.52786 85.7554 5.14767 85.3635 5.43237L82.2001 7.73075C82.0248 7.85807 81.9515 8.08375 82.0184 8.28976L83.2268 12.0086C83.3764 12.4693 82.8492 12.8523 82.4573 12.5676L79.2939 10.2693C79.1186 10.1419 78.8814 10.1419 78.7061 10.2693L75.5427 12.5676C75.1508 12.8523 74.6236 12.4693 74.7732 12.0086L75.9816 8.28976C76.0485 8.08375 75.9752 7.85807 75.7999 7.73075L72.6365 5.43237C72.2446 5.14767 72.446 4.52786 72.9304 4.52786H76.8406C77.0572 4.52786 77.2492 4.38838 77.3161 4.18237L78.5245 0.463524Z" fill="#C4C4C4"/>
</svg>
