<svg width="29" height="27" viewBox="0 0 29 27" fill="none" xmlns="http://www.w3.org/2000/svg">
<path d="M22.4503 8.36409C22.0197 7.87697 21.4059 7.60867 20.7222 7.60867H4.19142L4.02504 6.37331C3.84573 5.0425 2.91016 4 1.89504 4H0.680409C0.304589 4 0 4.30164 0 4.67383C0 5.04601 0.304589 5.34766 0.680409 5.34766H1.89504C2.11334 5.34766 2.57563 5.80477 2.6761 6.55142L4.62377 21.018C4.70953 21.6557 5.04034 22.2527 5.55525 22.6991C5.9371 23.0302 6.3884 23.2504 6.86114 23.3426C6.66854 23.6933 6.55903 24.0952 6.55903 24.5218C6.55903 25.8884 7.68171 27 9.06148 27C10.4413 27 11.5639 25.8884 11.5639 24.5218C11.5639 24.1146 11.4636 23.7305 11.2872 23.3913H14.8526C14.6761 23.7305 14.5758 24.1146 14.5758 24.5218C14.5758 25.8884 15.6985 27 17.0783 27C18.458 27 19.5807 25.8884 19.5807 24.5218C19.5807 24.1146 19.4804 23.7305 19.3039 23.3913H21.0866C21.4623 23.3913 21.7671 23.0895 21.7671 22.7175C21.7671 22.3453 21.4623 22.0437 21.0866 22.0437H7.36099C6.69618 22.0437 6.06042 21.4923 5.97254 20.8397L5.83025 19.7825H11.1259C11.1261 19.7825 11.1263 19.7827 11.1265 19.7827C11.1266 19.7827 11.1268 19.7825 11.1272 19.7825H15.4984C15.4986 19.7825 15.4988 19.7827 15.4991 19.7827C15.4993 19.7827 15.4993 19.7825 15.4995 19.7825H19.2646C19.9142 19.7825 20.5554 19.5367 21.0703 19.0904C21.5853 18.644 21.9161 18.0469 22.0018 17.4092L22.9778 10.1603C23.0682 9.48907 22.8809 8.85121 22.4503 8.36409ZM10.2031 24.5218C10.2031 25.1452 9.69104 25.6523 9.06148 25.6523C8.43211 25.6523 7.91985 25.1452 7.91985 24.5218C7.91985 23.8985 8.43211 23.3913 9.06148 23.3913C9.69104 23.3913 10.2031 23.8985 10.2031 24.5218ZM18.2199 24.5218C18.2199 25.1452 17.7078 25.6523 17.0783 25.6523C16.4487 25.6523 15.9366 25.1452 15.9366 24.5218C15.9366 23.8985 16.4487 23.3913 17.0783 23.3913C17.7078 23.3913 18.2199 23.8985 18.2199 24.5218ZM21.4263 9.25182C21.5948 9.44239 21.6668 9.70157 21.6288 9.98198L21.2197 13.0218H16.5901L16.8637 8.95632H20.7222C21.008 8.95632 21.258 9.06126 21.4263 9.25182ZM11.7636 18.4348L11.4899 14.3694H15.1355L14.8618 18.4348H11.7636ZM11.3991 13.0218L11.1256 8.95632H15.4999L15.2263 13.0218H11.3991ZM9.76174 8.95632L10.0353 13.0218H4.92003L4.37269 8.95632H9.76174ZM5.10147 14.3694H10.126L10.3998 18.4348H5.64881L5.10147 14.3694ZM19.2646 18.4348H16.2256L16.4994 14.3694H21.0383L20.6531 17.2311C20.5652 17.8837 19.9292 18.4348 19.2646 18.4348Z" fill="#828282"/>
<circle cx="22" cy="7" r="7" fill="white"/>
<path d="M22 0C18.1403 0 15 3.14004 15 7C15 10.86 18.1403 14 22 14C25.8597 14 29 10.86 29 7C29 3.14004 25.8597 0 22 0ZM25.9025 4.6655L21.5948 9.51165C21.4887 9.63092 21.3409 9.69231 21.192 9.69231C21.0738 9.69231 20.9551 9.65354 20.8558 9.57439L18.1635 7.42054C17.9314 7.23504 17.8937 6.89608 18.0795 6.66373C18.265 6.43139 18.6042 6.39369 18.8363 6.57946L21.1293 8.41373L25.0975 3.94962C25.2946 3.72723 25.6354 3.70731 25.8575 3.90492C26.0799 4.10281 26.1001 4.44312 25.9025 4.6655Z" fill="#FF4175"/>
</svg>
